HIERARCHY
ROOT Hips
{
	OFFSET 0.00000 0.00000 0.00000
	CHANNELS 6 Xposition Yposition Zposition Zrotation Yrotation Xrotation 
	JOINT LHipJoint
	{
		OFFSET 0 0 0
		CHANNELS 3 Zrotation Yrotation Xrotation
		JOINT LeftUpLeg
		{
			OFFSET 1.77779 -1.88989 0.48267
			CHANNELS 3 Zrotation Yrotation Xrotation
			JOINT LeftLeg
			{
				OFFSET 2.53442 -6.96327 0.00000
				CHANNELS 3 Zrotation Yrotation Xrotation
				JOINT LeftFoot
				{
					OFFSET 2.71068 -7.44755 0.00000
					CHANNELS 3 Zrotation Yrotation Xrotation
					JOINT LeftToeBase
					{
						OFFSET 0.17992 -0.49431 2.22524
						CHANNELS 3 Zrotation Yrotation Xrotation
						End Site
						{
							OFFSET 0.00000 -0.00000 1.14687
						}
					}
				}
			}
		}
	}
	JOINT RHipJoint
	{
		OFFSET 0 0 0
		CHANNELS 3 Zrotation Yrotation Xrotation
		JOINT RightUpLeg
		{
			OFFSET -1.58469 -1.88989 0.48267
			CHANNELS 3 Zrotation Yrotation Xrotation
			JOINT RightLeg
			{
				OFFSET -2.60386 -7.15404 0.00000
				CHANNELS 3 Zrotation Yrotation Xrotation
				JOINT RightFoot
				{
					OFFSET -2.73334 -7.50979 0.00000
					CHANNELS 3 Zrotation Yrotation Xrotation
					JOINT RightToeBase
					{
						OFFSET -0.25618 -0.70384 2.21822
						CHANNELS 3 Zrotation Yrotation Xrotation
						End Site
						{
							OFFSET -0.00000 -0.00000 1.16381
						}
					}
				}
			}
		}
	}
	JOINT LowerBack
	{
		OFFSET 0 0 0
		CHANNELS 3 Zrotation Yrotation Xrotation
		JOINT Spine
		{
			OFFSET 0.03410 2.01612 -0.22230
			CHANNELS 3 Zrotation Yrotation Xrotation
			JOINT Spine1
			{
				OFFSET 0.03465 2.03012 0.00937
				CHANNELS 3 Zrotation Yrotation Xrotation
				JOINT Neck
				{
					OFFSET 0 0 0
					CHANNELS 3 Zrotation Yrotation Xrotation
					JOINT Neck1
					{
						OFFSET -0.00219 1.70459 0.20857
						CHANNELS 3 Zrotation Yrotation Xrotation
						JOINT Head
						{
							OFFSET 0.02518 1.72339 -0.22179
							CHANNELS 3 Zrotation Yrotation Xrotation
							End Site
							{
								OFFSET 0.00282 1.74122 -0.09823
							}
						}
					}
				}
				JOINT LeftShoulder
				{
					OFFSET 0 0 0
					CHANNELS 3 Zrotation Yrotation Xrotation
					JOINT LeftArm
					{
						OFFSET 3.36358 1.00547 -0.37661
						CHANNELS 3 Zrotation Yrotation Xrotation
						JOINT LeftForeArm
						{
							OFFSET 5.06507 -0.00000 0.00000
							CHANNELS 3 Zrotation Yrotation Xrotation
							JOINT LeftHand
							{
								OFFSET 3.60196 -0.00000 0.00000
								CHANNELS 3 Zrotation Yrotation Xrotation
								JOINT LeftFingerBase
								{
									OFFSET 0 0 0
									CHANNELS 3 Zrotation Yrotation Xrotation
									JOINT LeftHandIndex1
									{
										OFFSET 0.45035 -0.00000 0.00000
										CHANNELS 3 Zrotation Yrotation Xrotation
										End Site
										{
											OFFSET 0.36308 -0.00000 0.00000
										}
									}
								}
								JOINT LThumb
								{
									OFFSET 0 0 0
									CHANNELS 3 Zrotation Yrotation Xrotation
									End Site
									{
										OFFSET 0.36862 -0.00000 0.36862
									}
								}
							}
						}
					}
				}
				JOINT RightShoulder
				{
					OFFSET 0 0 0
					CHANNELS 3 Zrotation Yrotation Xrotation
					JOINT RightArm
					{
						OFFSET -3.50159 0.80383 -0.71526
						CHANNELS 3 Zrotation Yrotation Xrotation
						JOINT RightForeArm
						{
							OFFSET -5.36394 -0.00000 0.00000
							CHANNELS 3 Zrotation Yrotation Xrotation
							JOINT RightHand
							{
								OFFSET -3.58035 -0.00000 0.00000
								CHANNELS 3 Zrotation Yrotation Xrotation
								JOINT RightFingerBase
								{
									OFFSET 0 0 0
									CHANNELS 3 Zrotation Yrotation Xrotation
									JOINT RightHandIndex1
									{
										OFFSET -0.66375 -0.00000 0.00000
										CHANNELS 3 Zrotation Yrotation Xrotation
										End Site
										{
											OFFSET -0.53513 -0.00000 0.00000
										}
									}
								}
								JOINT RThumb
								{
									OFFSET 0 0 0
									CHANNELS 3 Zrotation Yrotation Xrotation
									End Site
									{
										OFFSET -0.54330 -0.00000 0.54330
									}
								}
							}
						}
					}
				}
			}
		}
	}
}
MOTION
Frames: 15
Frame Time: 0.133333
0.00 0.00 0.00 0 0 0 0 0 0 -21 0 0 0 0 0 0 0 0 0 0 0 0 0 0 21 0 0 0 0 0 0 0 0 0 0 0 0 0 0 0 0 0 0 0 0 0 0 -16 0 0 21 0 0 11 0 0 0 -8 0 0 0 0 0 0 0 0 0 0 0 0 0 0 0 0 0 0 0 0 8 0 0 0 0 0 0 0 0 0 0 0 0 0 0 0 0 0
0.00 0.00 0.00 -0.0966 0.7385 -2.1676 0.0000 0.0000 0.0000 -23.8866 0.0838 10.3386 3.7737 11.8530 35.2139 -0.0435 -10.3931 14.0955 0.0076 -0.5612 -1.5421 0.0000 0.0000 0.0000 21.0137 13.3852 -24.2123 -2.3934 -9.6414 27.8231 -0.0040 -2.2088 -3.4381 -0.4313 -4.2146 11.6811 -1.1285 -1.7804 11.5461 2.3433 -2.3718 0.6125 3.4834 -1.1079 -5.6874 -1.5499 -2.8697 -19.0020 -0.2704 -3.4637 19.6243 -0.3050 -1.7648 9.3451 0.0000 0.0000 0.0000 -83.8574 -2.8528 28.6471 17.1851 -27.1012 -4.1713 -0.0000 0.0000 -6.8488 28.9046 12.3744 6.7480 -7.1250 0.0000 -0.0000 1.5269 44.0439 -0.0360 0.0000 0.0000 0.0000 90.8067 0.0967 -2.3466 -10.5774 17.6376 -1.6456 0.0000 0.0000 11.0404 -21.0831 19.1753 -7.2170 7.1250 -0.0000 -0.0000 4.6369 -9.5928 3.8122
0.00 0.00 0.00 -1.3935 0.4044 -2.8243 0.0000 0.0000 0.0000 -20.8756 -0.4496 3.8896 6.3243 14.7354 46.2699 1.0789 -11.9069 27.2299 0.0094 -0.6271 -1.7233 0.0000 0.0000 0.0000 23.8894 12.8320 -20.8702 -2.6685 -10.1381 29.4251 -0.0381 -1.7815 -4.7889 -0.7742 -5.6181 15.6803 0.4097 -1.4899 11.5766 2.2082 -1.8129 1.7468 2.3542 -0.8869 -4.6006 -0.8599 -3.3418 -21.8643 -0.2836 -4.2907 20.3443 -0.5977 -2.0796 10.1053 0.0000 0.0000 0.0000 -83.5430 -3.5496 29.5460 17.0025 -26.8610 -4.0885 -0.0000 0.0000 -7.3000 28.5181 23.0747 12.0222 -7.1250 0.0000 -0.0000 -0.6201 55.8447 -0.1650 0.0000 0.0000 0.0000 91.5499 1.7164 -2.3695 -10.4792 17.4856 -1.6160 0.0000 0.0000 10.3349 -18.9006 21.3650 -7.1100 7.1250 -0.0000 -0.0000 6.1929 -7.6236 5.3488
0.00 0.00 0.00 -3.5419 -0.4202 -3.1212 0.0000 0.0000 0.0000 -16.6116 -1.3985 -8.5889 10.7769 17.8242 62.0549 0.5872 -9.4679 20.8701 0.3800 3.9590 10.9613 0.0000 0.0000 0.0000 28.0265 12.1971 -15.1566 -2.7084 -10.2073 29.6508 -0.1917 -1.0620 -8.7285 -0.2094 -2.9459 8.1283 1.8999 -1.5154 12.4966 3.2158 -1.5290 0.5630 2.5945 -0.7569 -6.3853 -2.6644 -2.8377 -17.0677 0.2842 -3.2835 19.5497 0.1207 -1.7097 8.9999 -0.0000 0.0000 0.0000 -85.8188 0.6884 27.9007 16.2665 -25.8806 -3.7615 -0.0000 0.0000 -4.0358 30.3468 16.9440 9.6827 -7.1250 0.0000 -0.0000 2.4521 49.4089 0.2667 -0.0000 0.0000 0.0000 89.4512 0.0315 3.3332 -10.4694 17.4704 -1.6130 0.0000 0.0000 10.0538 -18.4285 20.8556 -6.7652 7.1250 -0.0000 -0.0000 6.4593 -8.2145 5.5062
0.00 0.00 0.00 -4.3232 -1.8931 -3.2193 0.0000 0.0000 0.0000 -14.8481 -2.6126 -18.5057 11.9539 18.3711 65.8426 -0.1169 -6.0932 2.9847 0.5531 -4.7642 -13.2372 0.0000 0.0000 0.0000 30.3197 11.2648 -9.3169 -2.5529 -9.9335 28.7617 -0.4024 -0.1622 -12.0444 -0.3564 -3.8352 10.6136 3.2096 -0.3945 12.8020 2.6679 0.1022 1.1129 0.9805 0.0006 -6.0139 -1.9736 -3.2910 -18.5481 0.2790 -4.0714 20.4512 -0.1298 -2.0160 9.5784 0.0000 0.0000 0.0000 -86.5245 0.3960 24.5042 15.4624 -24.7864 -3.4175 -0.0000 0.0000 -3.7073 33.1968 20.7074 13.0266 -7.1250 0.0000 -0.0000 4.9568 54.2226 1.1256 0.0000 0.0000 0.0000 89.1334 3.0699 6.0627 -11.0742 18.4019 -1.7993 0.0000 0.0000 10.9882 -16.2017 22.3976 -6.3176 7.1250 -0.0000 -0.0000 7.9622 -6.9383 7.0118
0.00 0.00 0.00 -6.4310 -4.5883 -2.3899 0.0000 0.0000 0.0000 -11.5785 -5.7766 -27.2780 7.5707 15.7942 51.0011 0.0922 1.4904 -6.4889 0.0141 -0.7679 -2.1103 0.0000 0.0000 0.0000 33.6905 9.4585 -2.1689 -2.4320 -9.7133 28.0532 -0.9867 0.0232 -18.7748 -0.1619 -2.5928 7.1470 5.8303 0.7816 12.6484 2.5528 2.0227 0.9189 -0.9478 0.8678 -6.0259 -1.7746 -3.3892 -17.8783 0.2023 -4.2575 20.2815 -0.2001 -2.0994 9.3916 -0.0000 -0.0000 0.0000 -86.7744 3.2732 21.3798 15.4723 -24.7999 -3.4216 -0.0000 0.0000 -5.8597 28.6352 17.1806 9.1620 -7.1250 0.0000 -0.0000 0.7168 49.3841 0.0775 -0.0000 -0.0000 0.0000 87.3086 5.5050 15.8666 -13.5896 22.1450 -2.6715 0.0000 0.0000 2.6473 -17.1401 10.9452 -3.3513 7.1250 -0.0000 -0.0000 7.0060 -18.5871 4.4407
0.00 0.00 0.00 -7.2753 -4.7548 -1.3856 0.0000 0.0000 0.0000 -9.9296 -8.5181 -28.0324 3.9559 12.1015 36.0921 0.0550 3.2361 -6.7793 0.0194 -0.8998 -2.4733 0.0000 0.0000 0.0000 34.6778 7.9412 1.3163 -2.0641 -8.9983 25.7900 -1.1900 0.1243 -20.5920 -0.1117 -2.1553 5.9351 6.8158 1.1102 12.0269 2.3992 2.5177 1.1000 -1.7229 1.1056 -5.4092 -1.4320 -3.4984 -19.3843 0.1835 -4.4776 20.5017 -0.3232 -2.1665 9.7371 0.0000 0.0000 0.0000 -86.5237 2.9848 19.9732 14.3562 -23.2416 -2.9672 -0.0000 0.0000 -4.8326 27.3702 17.9653 9.0723 -7.1250 0.0000 -0.0000 -0.6719 50.0370 -0.0834 0.0000 0.0000 0.0000 86.6709 7.6640 17.6946 -15.1478 24.3516 -3.2866 0.0000 0.0000 0.5257 -19.7563 21.1547 -7.3853 7.1250 -0.0000 -0.0000 5.6341 -7.7180 4.8505
0.00 0.00 0.00 -7.6644 -5.1979 -0.2206 0.0000 0.0000 0.0000 -7.7580 -12.9079 -25.2347 1.1036 6.6748 18.7555 0.0342 4.2278 -7.2261 0.0064 0.5146 1.4142 0.0000 0.0000 0.0000 35.0003 6.8120 5.0142 -1.7618 -8.3513 23.7862 -1.4213 0.5170 -22.3904 -0.0434 -1.3446 3.6975 6.9179 1.2850 11.0383 2.5357 2.7294 0.3363 -1.6481 1.1873 -5.6529 -2.0571 -3.2280 -17.2337 0.4094 -4.0129 20.0477 -0.0367 -1.9875 9.2015 0.0000 0.0000 0.0000 -87.1789 4.7273 17.0358 13.3021 -21.7282 -2.5640 -0.0000 0.0000 -3.6204 27.4912 18.9708 9.6016 -7.1250 0.0000 -0.0000 -0.7424 51.1603 -0.1127 0.0000 0.0000 0.0000 85.7116 7.6308 19.6920 -16.4083 26.0712 -3.8237 0.0000 -0.0000 -0.9317 -20.2213 21.0061 -7.5219 7.1250 -0.0000 -0.0000 5.3270 -7.8041 4.5747
0.00 0.00 0.00 -5.0176 -3.3706 -0.9301 0.0000 0.0000 0.0000 -14.6044 -11.1655 -25.1936 2.3145 9.4926 27.3486 -0.0672 -4.6679 0.8222 0.0009 -0.1936 -0.5319 0.0000 0.0000 0.0000 29.5841 1.6513 8.6792 -4.8790 -13.2463 40.2974 -0.0564 2.3672 -4.2832 -0.1288 2.3132 -6.3722 4.8280 1.3505 10.8501 1.6056 2.5049 -0.0311 -1.4246 1.1093 -5.9939 -1.7407 -3.3830 -16.9673 -0.0816 -4.2239 21.6883 -0.2986 -2.1130 9.7100 0.0000 -0.0000 0.0000 -88.0284 5.1638 11.5509 9.1318 -15.3702 -1.2348 -0.0000 -0.0000 2.1232 27.4064 17.5774 8.8992 -7.1250 0.0000 -0.0000 -0.5664 49.6170 -0.0645 0.0000 -0.0000 0.0000 86.4283 7.2428 12.1146 -14.7017 23.7289 -3.1049 0.0000 0.0000 3.4521 -20.4741 20.3986 -7.4147 7.1250 -0.0000 -0.0000 5.1195 -8.4000 4.3345
0.00 0.00 0.00 -3.5872 -4.9277 -1.7540 0.0000 0.0000 0.0000 -17.5728 -9.1212 -21.6027 2.5009 9.8396 28.4589 -0.0319 -4.3493 -1.5905 0.2838 3.4264 9.4681 0.0000 0.0000 0.0000 26.5038 3.9775 2.6832 -8.1271 -16.2119 53.0191 -0.4153 -0.0782 12.1487 -0.2169 -2.9983 8.2741 3.8898 1.8169 10.9182 1.2940 2.9777 0.2944 -1.2943 1.3748 -5.6891 -1.7541 -3.2814 -16.6681 -0.0475 -4.0975 22.0079 -0.2659 -2.0522 9.7674 0.0000 0.0000 0.0000 -88.1492 4.7369 13.0651 9.4005 -15.7964 -1.3070 -0.0000 -0.0000 1.6863 26.8782 20.2683 9.9585 -7.1250 0.0000 -0.0000 -1.6492 52.4622 -0.3030 0.0000 0.0000 0.0000 86.7531 6.5392 9.7310 -13.8273 22.4873 -2.7617 0.0000 0.0000 3.3668 -17.1159 23.1568 -6.9048 7.1250 -0.0000 -0.0000 7.4382 -6.0403 6.6720
0.00 0.00 0.00 -0.8660 -5.1029 -2.5268 0.0000 0.0000 0.0000 -22.2061 -7.4271 -15.9921 2.3986 9.6511 27.8541 0.0964 -3.6360 -5.7048 0.0934 1.9714 5.4266 0.0000 0.0000 0.0000 22.2261 6.2424 -7.8120 -12.9327 -18.7577 68.9164 -0.1281 -5.5227 6.9507 -0.2360 -3.1268 8.6321 1.0803 1.6187 11.6547 0.8393 2.3488 0.2770 -0.1220 1.1307 -6.2418 -1.6756 -2.8656 -16.3089 -0.2087 -3.5088 22.1711 -0.2526 -1.7939 9.7480 0.0000 0.0000 0.0000 -87.7314 4.7890 17.6983 10.8620 -18.0764 -1.7329 -0.0000 0.0000 -2.1425 27.8285 21.2792 10.8449 -7.1250 0.0000 -0.0000 -0.9005 53.7461 -0.1936 0.0000 0.0000 0.0000 87.2431 5.4042 10.5590 -13.3472 21.7938 -2.5807 0.0000 0.0000 5.0344 -15.5778 12.9255 -3.5684 7.1250 -0.0000 -0.0000 8.0944 -16.6638 5.4889
0.00 0.00 0.00 0.4999 -1.8893 -3.0357 0.0000 0.0000 0.0000 -25.9574 -4.8511 -6.2578 2.1737 9.2189 26.4824 0.5209 -4.4595 -12.8451 0.0028 0.3403 0.9350 0.0000 0.0000 0.0000 18.9648 8.5085 -25.0111 -13.5974 -18.9874 70.9711 -0.0686 -3.8232 -7.7836 -0.0118 -0.7000 1.9238 -0.6784 -0.1020 11.4863 1.0980 -0.1590 0.8144 1.5593 -0.0488 -5.5869 -1.4498 -2.4959 -15.5090 -0.7053 -2.9495 22.1133 -0.3769 -1.5764 9.5613 0.0000 -0.0000 0.0000 -85.1627 1.4147 26.0722 14.4968 -23.4405 -3.0229 -0.0000 0.0000 -3.3993 28.5212 23.3329 12.1470 -7.1250 0.0000 -0.0000 -0.6873 56.1261 -0.1876 0.0000 -0.0000 0.0000 89.0342 2.8229 10.5730 -14.6406 23.6430 -3.0804 0.0000 0.0000 1.4881 -18.3485 22.4156 -7.2079 7.1250 -0.0000 -0.0000 6.6157 -6.6215 5.8488
0.00 0.00 0.00 2.0493 -0.7950 -2.6945 0.0000 0.0000 0.0000 -28.2506 -2.7849 -1.4802 2.0830 9.0368 25.9106 0.8861 -4.5404 -16.8419 0.0009 -0.1986 -0.5456 0.0000 0.0000 0.0000 16.7915 10.0539 -30.7059 -9.2922 -16.9921 57.0954 -0.2411 -3.8772 -11.5329 -0.0147 -0.7840 2.1547 -2.6401 -0.5756 11.6053 0.9510 -1.0516 0.8849 2.6580 -0.4433 -5.5178 -1.6575 -2.6388 -16.1036 -0.6025 -3.1099 22.3253 -0.3388 -1.6560 9.7542 -0.0000 0.0000 0.0000 -82.7222 -0.7745 29.8285 17.7442 -27.8284 -4.4292 -0.0000 0.0000 -4.9327 29.3600 4.8093 2.7003 -7.1250 0.0000 -0.0000 2.2489 35.4863 -0.5260 -0.0000 0.0000 0.0000 89.7313 1.1427 11.2040 -15.2253 24.4591 -3.3187 0.0000 0.0000 1.3972 -18.8131 22.2744 -7.3581 7.1250 -0.0000 -0.0000 6.3136 -6.6989 5.5688
0.00 0.00 0.00 2.1147 -0.7703 -2.1235 0.0000 0.0000 0.0000 -28.3488 -0.3218 2.2533 1.5166 7.7768 22.0380 0.8838 -5.2525 -16.7783 0.0003 0.1030 0.2831 0.0000 0.0000 0.0000 16.8908 10.7609 -31.3263 -5.4025 -13.8233 42.5340 0.1354 -7.5458 -6.8241 -0.2369 3.1327 -8.6485 -2.8018 -0.7225 11.0668 0.9676 -1.2523 0.8926 2.7855 -0.5446 -5.1921 -1.7377 -2.6089 -15.9389 -0.1193 -3.1675 21.8760 -0.1586 -1.6343 9.5749 0.0000 -0.0000 0.0000 -81.1647 -1.8939 30.9947 19.9860 -30.6255 -5.5242 -0.0000 0.0000 -6.7350 30.6805 20.3768 11.6721 -7.1250 0.0000 -0.0000 2.2993 53.3243 0.4710 0.0000 -0.0000 0.0000 90.3035 0.7015 10.2700 -14.5712 23.5453 -3.0526 0.0000 0.0000 1.9347 -18.5868 25.1906 -8.1455 7.1250 -0.0000 -0.0000 6.6906 -3.7417 6.2834
0.00 0.00 0.00 2.8426 -0.8178 -1.4964 0.0000 0.0000 0.0000 -28.9787 2.1656 6.6816 0.9833 6.3120 17.6925 0.8181 -5.1054 -16.1346 0.0004 -0.1264 -0.3473 0.0000 0.0000 0.0000 15.8218 12.8437 -29.4315 -2.2517 -9.3717 26.9653 0.3721 -10.7528 -3.3681 -1.7183 8.2528 -23.4845 -3.8353 -0.8725 10.2365 0.9830 -1.5476 0.8299 3.4076 -0.6774 -4.7467 -1.8983 -2.5581 -16.0776 -0.3241 -3.0012 21.8811 -0.1834 -1.5938 9.6010 -0.0000 -0.0000 0.0000 -80.2030 -2.8403 31.0370 21.5579 -32.4737 -6.3468 -0.0000 0.0000 -8.5580 30.9078 22.3849 12.8433 -7.1250 0.0000 -0.0000 2.1659 55.6090 0.5641 -0.0000 -0.0000 0.0000 90.5344 0.3590 8.8206 -13.5930 22.1499 -2.6727 0.0000 0.0000 3.5446 -19.5459 23.4271 -8.0342 7.1250 -0.0000 -0.0000 5.9475 -5.3997 5.3912
